<svg width="28" height="29" viewBox="0 0 28 29" fill="none" xmlns="http://www.w3.org/2000/svg">
<path d="M6.48764 20.869L13.3067 25.047C13.4763 25.1509 13.6682 25.2055 13.8634 25.2055C14.0587 25.2055 14.2505 25.1509 14.4201 25.047L21.2392 20.869C21.3888 20.7773 21.5167 20.65 21.6131 20.4968C21.7094 20.3435 21.7716 20.1686 21.7947 19.9855L23.2795 8.30472C23.3144 8.03033 23.26 7.75144 23.1254 7.51507C22.9909 7.2787 22.7845 7.0993 22.541 7.00713L14.236 3.86306C13.9945 3.77174 13.7312 3.77174 13.4897 3.86306L5.18577 7.00833C4.94229 7.10051 4.73589 7.2799 4.60137 7.51627C4.46685 7.75265 4.41243 8.03154 4.44729 8.30593L5.9321 19.9867C5.95525 20.1698 6.0174 20.3447 6.11374 20.498C6.21008 20.6512 6.33801 20.7773 6.48764 20.869Z" stroke="#FFD9DF" stroke-width="1.5" stroke-linecap="round" stroke-linejoin="round"/>
<path d="M10.4966 18.1667L13.8635 8.53704L17.2304 18.1667" stroke="#FFD9DF" stroke-width="1.5" stroke-linecap="round" stroke-linejoin="round"/>
<path d="M11.6187 15.7593H16.1079" stroke="#FFD9DF" stroke-width="1.5" stroke-linecap="round" stroke-linejoin="round"/>
</svg>
