<svg width="26" height="26" viewBox="0 0 26 26" fill="none" xmlns="http://www.w3.org/2000/svg">
<path d="M13.0001 1.04C12.6284 1.04 12.2566 1.13344 11.9255 1.32031L3.1668 6.24203C2.49648 6.61781 2.08008 7.32266 2.08008 8.07828V17.9217C2.08008 18.6773 2.49648 19.3822 3.1668 19.758L11.9255 24.6797C12.2566 24.8666 12.6284 24.96 13.0001 24.96C13.3718 24.96 13.7435 24.8666 14.0746 24.6797L22.8334 19.76C23.5037 19.3822 23.9201 18.6773 23.9201 17.9217V8.07828C23.9201 7.32266 23.5037 6.61781 22.8334 6.24203L14.0746 1.32031C13.7435 1.13344 13.3718 1.04 13.0001 1.04ZM13.0001 6.76C14.9663 6.76 16.7843 7.67203 17.9624 9.22391L15.6834 10.5442C14.9988 9.79469 14.0259 9.36 13.0001 9.36C10.9932 9.36 9.36008 10.9931 9.36008 13C9.36008 15.0069 10.9932 16.64 13.0001 16.64C14.0259 16.64 14.9988 16.2053 15.6834 15.4558L17.9624 16.7761C16.7843 18.328 14.9663 19.24 13.0001 19.24C9.55914 19.24 6.76008 16.4409 6.76008 13C6.76008 9.55906 9.55914 6.76 13.0001 6.76ZM18.2001 10.4H19.2401V11.44H20.2801V10.4H21.3201V11.44H22.3601V12.48H21.3201V13.52H22.3601V14.56H21.3201V15.6H20.2801V14.56H19.2401V15.6H18.2001V14.56H17.1601V13.52H18.2001V12.48H17.1601V11.44H18.2001V10.4ZM19.2401 12.48V13.52H20.2801V12.48H19.2401Z" fill="#FFD9DF"/>
</svg>
