<svg width="28" height="30" viewBox="0 0 28 30" fill="none" xmlns="http://www.w3.org/2000/svg">
<g clip-path="url(#clip0_41_336)">
<path d="M25.4673 15.9833C23.4427 15.5681 22.436 14.6833 21.5134 12.4444C20.9669 13.2822 20.2766 14.3318 20.4809 15.3333C20.5123 15.6198 20.1218 16.537 19.8558 16.537H4.14355C4.14355 22.8059 7.69452 24.963 11.0973 24.963C15.7257 24.9894 19.8827 23.3067 22.1565 18.9444C23.4427 18.8229 24.7333 17.1329 25.4673 15.9833Z" stroke="#FFD9DF" stroke-width="1.5" stroke-linecap="round" stroke-linejoin="round"/>
<path d="M6.38818 12.9259H9.75509V16.537H6.38818V12.9259Z" stroke="#FFD9DF" stroke-width="1.5" stroke-linecap="round" stroke-linejoin="round"/>
<path d="M9.75537 12.9259H13.1223V16.537H9.75537V12.9259Z" stroke="#FFD9DF" stroke-width="1.5" stroke-linecap="round" stroke-linejoin="round"/>
<path d="M13.1221 12.9259H16.489V16.537H13.1221V12.9259Z" stroke="#FFD9DF" stroke-width="1.5" stroke-linecap="round" stroke-linejoin="round"/>
<path d="M9.75537 9.31481H13.1223V12.9259H9.75537V9.31481Z" stroke="#FFD9DF" stroke-width="1.5" stroke-linecap="round" stroke-linejoin="round"/>
<path d="M13.1221 9.31481H16.489V12.9259H13.1221V9.31481Z" stroke="#FFD9DF" stroke-width="1.5" stroke-linecap="round" stroke-linejoin="round"/>
<path d="M13.1221 5.7037H16.489V9.31481H13.1221V5.7037Z" stroke="#FFD9DF" stroke-width="1.5" stroke-linecap="round" stroke-linejoin="round"/>
<path d="M5.90674 22.5556C7.59019 22.5556 8.20409 22.4665 9.22651 21.6167" stroke="#FFD9DF" stroke-width="1.5" stroke-linecap="round" stroke-linejoin="round"/>
<path d="M12 20.1481V20.1602" stroke="#FFD9DF" stroke-width="1.5" stroke-linecap="round" stroke-linejoin="round"/>
</g>
<defs>
<clipPath id="clip0_41_336">
<rect width="26.9353" height="28.8889" fill="white" transform="translate(0.776855 0.888885)"/>
</clipPath>
</defs>
</svg>
