<svg width="28" height="30" viewBox="0 0 28 30" fill="none" xmlns="http://www.w3.org/2000/svg">
<g clip-path="url(#clip0_41_347)">
<path d="M14.3599 15.3333C14.3599 16.2911 14.7146 17.2096 15.346 17.8868C15.9774 18.564 16.8338 18.9444 17.7268 18.9444C18.6197 18.9444 19.4761 18.564 20.1075 17.8868C20.739 17.2096 21.0937 16.2911 21.0937 15.3333C21.0937 14.3756 20.739 13.4571 20.1075 12.7799C19.4761 12.1027 18.6197 11.7222 17.7268 11.7222C16.8338 11.7222 15.9774 12.1027 15.346 12.7799C14.7146 13.4571 14.3599 14.3756 14.3599 15.3333Z" stroke="#FFD9DF" stroke-width="1.5" stroke-linecap="round" stroke-linejoin="round"/>
<path d="M7.62598 8.11111C7.62598 7.15338 7.9807 6.23488 8.61212 5.55767C9.24354 4.88045 10.0999 4.5 10.9929 4.5H17.7267C18.6197 4.5 19.476 4.88045 20.1075 5.55767C20.7389 6.23488 21.0936 7.15338 21.0936 8.11111C21.0936 9.06883 20.7389 9.98733 20.1075 10.6645C19.476 11.3418 18.6197 11.7222 17.7267 11.7222H10.9929C10.0999 11.7222 9.24354 11.3418 8.61212 10.6645C7.9807 9.98733 7.62598 9.06883 7.62598 8.11111Z" stroke="#FFD9DF" stroke-width="1.5" stroke-linecap="round" stroke-linejoin="round"/>
<path d="M10.9929 11.7222C10.0999 11.7222 9.24354 12.1027 8.61212 12.7799C7.9807 13.4571 7.62598 14.3756 7.62598 15.3333C7.62598 16.2911 7.9807 17.2096 8.61212 17.8868C9.24354 18.564 10.0999 18.9444 10.9929 18.9444M10.9929 18.9444H14.3598M10.9929 18.9444C10.327 18.9444 9.67602 19.1562 9.12233 19.553C8.56865 19.9498 8.1371 20.5138 7.88227 21.1736C7.62744 21.8335 7.56076 22.5596 7.69067 23.26C7.82059 23.9605 8.14125 24.604 8.61212 25.109C9.08299 25.614 9.68292 25.9579 10.336 26.0973C10.9891 26.2366 11.6661 26.1651 12.2813 25.8918C12.8966 25.6185 13.4224 25.1556 13.7924 24.5618C14.1623 23.9679 14.3598 23.2698 14.3598 22.5556V4.5" stroke="#FFD9DF" stroke-width="1.5" stroke-linecap="round" stroke-linejoin="round"/>
</g>
<defs>
<clipPath id="clip0_41_347">
<rect width="26.9353" height="28.8889" fill="white" transform="translate(0.89209 0.888885)"/>
</clipPath>
</defs>
</svg>
