<svg width="28" height="29" viewBox="0 0 28 29" fill="none" xmlns="http://www.w3.org/2000/svg">
<g clip-path="url(#clip0_41_331)">
<path d="M5.74609 20.6343L12.6483 6.52685H12.6258C13.0523 5.63611 14.0624 5.29907 14.8816 5.76852C15.1734 5.93704 15.4203 6.20185 15.5775 6.51481L16.7671 8.93426" stroke="#FFD9DF" stroke-width="1.5" stroke-linecap="round" stroke-linejoin="round"/>
<path d="M18.0239 7.875C18.6748 7.16481 19.741 7.16481 20.392 7.86296C20.6389 8.12778 20.796 8.46481 20.8521 8.83796L22.5356 19.8037C22.6478 20.55 22.3111 21.2963 21.6826 21.6574L14.8702 25.1481C14.354 25.4491 13.7367 25.4611 13.2317 25.1481L6.47542 21.6333C5.85815 21.2602 5.52146 20.5259 5.63369 19.7796L7.8334 5.28704C7.96808 4.3 8.83225 3.62592 9.74132 3.78241C10.2576 3.86667 10.7177 4.21574 10.9646 4.70926L12.3563 6.82778" stroke="#FFD9DF" stroke-width="1.5" stroke-linecap="round" stroke-linejoin="round"/>
<path d="M5.79102 20.7907L18.0578 7.93518" stroke="#FFD9DF" stroke-width="1.5" stroke-linecap="round" stroke-linejoin="round"/>
</g>
<defs>
<clipPath id="clip0_41_331">
<rect width="26.9353" height="28.8889" fill="white" transform="translate(0.662109 0.111111)"/>
</clipPath>
</defs>
</svg>
