<svg width="28" height="29" viewBox="0 0 28 29" fill="none" xmlns="http://www.w3.org/2000/svg">
<path d="M13.6405 20.4528C16.6773 20.4528 19.1392 17.8124 19.1392 14.5554C19.1392 11.2983 16.6773 8.65798 13.6405 8.65798C10.6037 8.65798 8.14185 11.2983 8.14185 14.5554C8.14185 17.8124 10.6037 20.4528 13.6405 20.4528Z" fill="#FFD9DF"/>
<path d="M24.8618 4.54841C24.8618 3.42825 24.0149 2.52053 22.9707 2.52053C22.5158 2.52023 22.0761 2.69683 21.7332 3.01759C19.4783 1.19374 16.6752 0.111111 13.6402 0.111111C6.21407 0.111111 0.172607 6.59086 0.172607 14.5556C0.172607 22.5201 6.21422 29 13.6403 29C21.0664 29 27.1079 22.5201 27.1079 14.5556C27.1079 11.3005 26.0986 8.29384 24.3982 5.87552C24.6973 5.50787 24.862 5.03636 24.8618 4.54841ZM13.6402 28.5141C6.4639 28.5141 0.625348 22.2521 0.625348 14.5553C0.625348 6.8588 6.4639 0.596845 13.6403 0.596845C16.558 0.596845 19.2544 1.63223 21.4276 3.37825C21.201 3.71999 21.0794 4.12895 21.0797 4.54825C21.0797 5.66825 21.9263 6.57597 22.9704 6.57597C23.3772 6.57597 23.7527 6.43714 24.0612 6.20285C25.6891 8.53347 26.6545 11.4254 26.6545 14.5552C26.6548 22.2521 20.8166 28.5141 13.6402 28.5141Z" fill="#FFD9DF"/>
</svg>
