<svg width="28" height="29" viewBox="0 0 28 29" fill="none" xmlns="http://www.w3.org/2000/svg">
<g clip-path="url(#clip0_40_235)">
<path d="M27.8488 0.111111H0.913574V29H27.8488V0.111111Z" fill="#FFD9DF"/>
<path d="M5.71419 18.5679C5.52374 18.5679 5.36186 18.4998 5.22854 18.3637C5.09522 18.2241 5.02856 18.0583 5.02856 17.8663C5.02856 17.6708 5.09522 17.5033 5.22854 17.3637C5.36186 17.224 5.52374 17.1542 5.71419 17.1542C5.90782 17.1542 6.07129 17.224 6.20461 17.3637C6.3411 17.5033 6.40934 17.6708 6.40934 17.8663C6.40934 18.0583 6.3411 18.2241 6.20461 18.3637C6.07129 18.4998 5.90782 18.5679 5.71419 18.5679Z" fill="#5B3F44"/>
<path d="M13.3279 18.4527H12.0899L8.82844 12.9341C8.74592 12.7945 8.67764 12.6496 8.62371 12.4995H8.59512C8.62052 12.6601 8.63322 13.0039 8.63322 13.531V18.4527H7.53809V10.9444H8.85697L12.009 16.3322C12.1423 16.5556 12.228 16.7092 12.2661 16.7929H12.2851C12.2534 16.594 12.2375 16.2572 12.2375 15.7824V10.9444H13.3279V18.4527Z" fill="#5B3F44"/>
<path d="M18.6607 18.4527H14.8279V10.9444H18.5084V12.0021H15.9611V14.1279H18.3084V15.1803H15.9611V17.4003H18.6607V18.4527Z" fill="#5B3F44"/>
<path d="M24.1079 12.0021H22.1463V18.4527H21.013V12.0021H19.0562V10.9444H24.1079V12.0021Z" fill="#5B3F44"/>
</g>
<defs>
<clipPath id="clip0_40_235">
<rect x="0.913574" y="0.111111" width="26.9353" height="28.8889" rx="5" fill="white"/>
</clipPath>
</defs>
</svg>
