<svg width="28" height="29" viewBox="0 0 28 29" fill="none" xmlns="http://www.w3.org/2000/svg">
<path d="M10.7555 10.8333V20.5159C10.7555 20.938 10.6519 21.3527 10.4553 21.7183C10.2587 22.0839 9.97591 22.3877 9.63531 22.5991C9.29471 22.8105 8.90826 22.9222 8.51472 22.9229C8.12119 22.9236 7.73439 22.8133 7.39312 22.6031L5.63335 21.5198C5.14094 21.1972 4.7341 20.7442 4.45189 20.2044C4.16967 19.6646 4.02155 19.056 4.02173 18.4371V10.4506C4.02174 9.83187 4.16996 9.22357 4.45216 8.68398C4.73437 8.14439 5.1411 7.69161 5.63335 7.36907L12.3672 2.95509C12.8957 2.60877 13.5031 2.42553 14.1224 2.42553C14.7418 2.42553 15.3492 2.60877 15.8777 2.95509L22.6115 7.36907C23.104 7.69172 23.5108 8.14469 23.793 8.6845C24.0752 9.22432 24.2233 9.83287 24.2232 10.4518V18.4371C24.2232 19.0558 24.0749 19.6641 23.7927 20.2037C23.5105 20.7433 23.1038 21.1961 22.6115 21.5186L15.8777 25.9326C15.3492 26.2789 14.7418 26.4621 14.1224 26.4621C13.5031 26.4621 12.8957 26.2789 12.3672 25.9326" stroke="#FFD9DF" stroke-width="1.5" stroke-linecap="round" stroke-linejoin="round"/>
<path d="M19.7338 10.8333H15.8058C15.3593 10.8333 14.9311 11.0236 14.6154 11.3622C14.2997 11.7008 14.1223 12.16 14.1223 12.6389C14.1223 13.1178 14.2997 13.577 14.6154 13.9156C14.9311 14.2542 15.3593 14.4444 15.8058 14.4444H18.0504C18.4969 14.4444 18.925 14.6347 19.2408 14.9733C19.5565 15.3119 19.7338 15.7711 19.7338 16.25C19.7338 16.7289 19.5565 17.1881 19.2408 17.5267C18.925 17.8653 18.4969 18.0556 18.0504 18.0556H14.1223" stroke="#FFD9DF" stroke-width="1.5" stroke-linecap="round" stroke-linejoin="round"/>
</svg>
