<svg width="28" height="29" viewBox="0 0 28 29" fill="none" xmlns="http://www.w3.org/2000/svg">
<path d="M2.67627 14.4444C2.67627 17.3176 3.85869 20.0731 5.96342 22.1048C8.06814 24.1364 10.9228 25.2778 13.8993 25.2778C16.8758 25.2778 19.7304 24.1364 21.8352 22.1048C23.9399 20.0731 25.1223 17.3176 25.1223 14.4444C25.1223 11.5713 23.9399 8.81576 21.8352 6.78412C19.7304 4.75248 16.8758 3.61111 13.8993 3.61111C10.9228 3.61111 8.06814 4.75248 5.96342 6.78412C3.85869 8.81576 2.67627 11.5713 2.67627 14.4444Z" stroke="#FFD9DF" stroke-width="1.5" stroke-linecap="round" stroke-linejoin="round"/>
<path d="M6.60425 18.0556L7.04756 15.6794L7.72655 12.037H9.20799C9.3709 12.0371 9.53185 12.0752 9.67964 12.1487C9.82743 12.2223 9.95853 12.3294 10.0638 12.4627C10.1691 12.596 10.2461 12.7524 10.2894 12.9208C10.3327 13.0892 10.3413 13.2658 10.3146 13.4381L10.1272 14.6419C10.0836 14.9229 9.94847 15.1783 9.74585 15.3626C9.54322 15.5468 9.28622 15.648 9.02056 15.6481H7.1654" stroke="#FFD9DF" stroke-width="1.5" stroke-linecap="round" stroke-linejoin="round"/>
<path d="M17.8274 18.0556L18.2707 15.6794L18.9497 12.037H20.4311C20.594 12.0371 20.755 12.0752 20.9028 12.1487C21.0506 12.2223 21.1817 12.3294 21.287 12.4627C21.3923 12.596 21.4692 12.7524 21.5125 12.9208C21.5559 13.0892 21.5644 13.2658 21.5377 13.4381L21.3503 14.6419C21.3067 14.9229 21.1716 15.1783 20.969 15.3626C20.7664 15.5468 20.5094 15.648 20.2437 15.6481H18.3885" stroke="#FFD9DF" stroke-width="1.5" stroke-linecap="round" stroke-linejoin="round"/>
<path d="M13.8992 9.02778L12.7769 15.6481" stroke="#FFD9DF" stroke-width="1.5" stroke-linecap="round" stroke-linejoin="round"/>
<path d="M13.4504 12.037H16.144L15.5828 15.6481" stroke="#FFD9DF" stroke-width="1.5" stroke-linecap="round" stroke-linejoin="round"/>
</svg>
