<svg width="26" height="26" viewBox="0 0 26 26" fill="none" xmlns="http://www.w3.org/2000/svg">
<g clip-path="url(#clip0_72_16)">
<path d="M17.9185 7.58333C17.0464 5.02125 15.1712 3.25 13.0002 3.25C9.99501 3.25 7.55859 6.10133 7.55859 10.2873C7.55859 12.4063 9.27243 15.4082 10.2799 16.7873" stroke="#FFD9DF" stroke-width="1.66667" stroke-linecap="round" stroke-linejoin="round"/>
<path d="M5.10349 12.9772C3.30949 15.0107 2.70499 17.511 3.79158 19.3808C5.29416 21.97 9.35774 22.4477 13.001 20.3558C14.8459 19.2952 16.1156 16.7137 16.81 15.158" stroke="#FFD9DF" stroke-width="1.66667" stroke-linecap="round" stroke-linejoin="round"/>
<path d="M16.265 21.6558C18.9853 21.6558 21.165 21.1813 22.2093 19.3808C23.7119 16.7917 21.9764 12.9967 18.3321 10.9048C16.4882 9.84425 13.612 9.56692 11.9111 9.74567" stroke="#FFD9DF" stroke-width="1.66667" stroke-linecap="round" stroke-linejoin="round"/>
<path d="M11.3675 10.6838C11.8875 10.9828 12.5538 10.8052 12.8538 10.2873C12.9971 10.0385 13.0356 9.74295 12.9611 9.46568C12.8865 9.1884 12.705 8.95206 12.4563 8.80858C12.2063 8.66457 11.9094 8.62544 11.6307 8.69975C11.3519 8.77406 11.114 8.95575 10.9688 9.20508C10.8257 9.45407 10.7873 9.7497 10.8621 10.027C10.9368 10.3043 11.1186 10.5405 11.3675 10.6838Z" stroke="#FFD9DF" stroke-width="1.66667" stroke-linecap="round" stroke-linejoin="round"/>
<path d="M9.2085 16.7917C9.2085 17.079 9.32263 17.3545 9.5258 17.5577C9.72896 17.7609 10.0045 17.875 10.2918 17.875C10.5791 17.875 10.8547 17.7609 11.0579 17.5577C11.261 17.3545 11.3752 17.079 11.3752 16.7917C11.3752 16.5043 11.261 16.2288 11.0579 16.0256C10.8547 15.8225 10.5791 15.7083 10.2918 15.7083C10.0045 15.7083 9.72896 15.8225 9.5258 16.0256C9.32263 16.2288 9.2085 16.5043 9.2085 16.7917Z" stroke="#FFD9DF" stroke-width="1.66667" stroke-linecap="round" stroke-linejoin="round"/>
<path d="M15.7085 15.1667C15.7085 15.454 15.8226 15.7295 16.0258 15.9327C16.229 16.1359 16.5045 16.25 16.7918 16.25C17.0791 16.25 17.3547 16.1359 17.5579 15.9327C17.761 15.7295 17.8752 15.454 17.8752 15.1667C17.8752 14.8793 17.761 14.6038 17.5579 14.4006C17.3547 14.1975 17.0791 14.0833 16.7918 14.0833C16.5045 14.0833 16.229 14.1975 16.0258 14.4006C15.8226 14.6038 15.7085 14.8793 15.7085 15.1667Z" stroke="#FFD9DF" stroke-width="1.66667" stroke-linecap="round" stroke-linejoin="round"/>
</g>
<defs>
<clipPath id="clip0_72_16">
<rect width="26" height="26" fill="white"/>
</clipPath>
</defs>
</svg>
