<svg width="28" height="29" viewBox="0 0 28 29" fill="none" xmlns="http://www.w3.org/2000/svg">
<g clip-path="url(#clip0_41_274)">
<path d="M14.1225 9.62963C14.7178 9.62963 15.2888 9.88327 15.7097 10.3347C16.1307 10.7862 16.3671 11.3986 16.3671 12.037V16.8519C16.3671 17.4903 16.1307 18.1027 15.7097 18.5541C15.2888 19.0056 14.7178 19.2593 14.1225 19.2593C13.5272 19.2593 12.9563 19.0056 12.5354 18.5541C12.1144 18.1027 11.8779 17.4903 11.8779 16.8519V12.037C11.8779 11.3986 12.1144 10.7862 12.5354 10.3347C12.9563 9.88327 13.5272 9.62963 14.1225 9.62963Z" stroke="#FFD9DF" stroke-width="1.5" stroke-linecap="round" stroke-linejoin="round"/>
<path d="M19.7339 9.62963V19.2593H24.2231" stroke="#FFD9DF" stroke-width="1.5" stroke-linecap="round" stroke-linejoin="round"/>
<path d="M15.2446 18.0556L16.3669 19.2593" stroke="#FFD9DF" stroke-width="1.5" stroke-linecap="round" stroke-linejoin="round"/>
<path d="M4.02173 18.0556C4.02173 18.3748 4.13997 18.681 4.35044 18.9067C4.56092 19.1324 4.84638 19.2593 5.14403 19.2593H7.38864C7.68629 19.2593 7.97175 19.1324 8.18222 18.9067C8.39269 18.681 8.51094 18.3748 8.51094 18.0556V15.6481C8.51094 15.3289 8.39269 15.0227 8.18222 14.797C7.97175 14.5713 7.68629 14.4444 7.38864 14.4444H5.14403C4.84638 14.4444 4.56092 14.3176 4.35044 14.0919C4.13997 13.8662 4.02173 13.56 4.02173 13.2407V10.8333C4.02173 10.5141 4.13997 10.2079 4.35044 9.98219C4.56092 9.75645 4.84638 9.62963 5.14403 9.62963H7.38864C7.68629 9.62963 7.97175 9.75645 8.18222 9.98219C8.39269 10.2079 8.51094 10.5141 8.51094 10.8333" stroke="#FFD9DF" stroke-width="1.5" stroke-linecap="round" stroke-linejoin="round"/>
</g>
<defs>
<clipPath id="clip0_41_274">
<rect width="26.9353" height="28.8889" fill="white" transform="translate(0.654785)"/>
</clipPath>
</defs>
</svg>
