<svg width="36" height="36" viewBox="0 0 36 36" fill="none" xmlns="http://www.w3.org/2000/svg">
<g clip-path="url(#clip0_9_333)">
<path d="M18 3L18.963 3.0075L19.887 3.033L20.3355 3.0525L21.204 3.1035L22.0335 3.1725C29.064 3.855 32.0085 6.672 32.7825 13.5315L32.8275 13.9665L32.8965 14.796L32.958 15.8865L32.967 16.1115L32.9925 17.037L33 18L32.9925 18.963L32.967 19.887L32.9475 20.3355L32.8965 21.204L32.8275 22.0335C32.145 29.064 29.328 32.0085 22.4685 32.7825L22.0335 32.8275L21.204 32.8965L20.1135 32.958L19.8885 32.967L18.963 32.9925L18 33L17.037 32.9925L16.113 32.967L15.6645 32.9475L14.796 32.8965L13.9665 32.8275C6.93603 32.145 3.99153 29.328 3.21753 22.4685L3.17253 22.0335L3.10353 21.204L3.04203 20.1135L3.03303 19.8885L3.00753 18.963L3.00153 18.486V17.514L3.00753 17.037L3.03303 16.113L3.05253 15.6645L3.10353 14.796L3.17253 13.9665C3.85503 6.936 6.67203 3.9915 13.5315 3.2175L13.9665 3.1725L14.796 3.1035L15.8865 3.042L16.1115 3.033L17.037 3.0075C17.352 3.003 17.673 3 18 3ZM18 16.5H16.5L16.3245 16.5105C15.96 16.5539 15.6239 16.7294 15.3801 17.0039C15.1363 17.2785 15.0017 17.6329 15.0017 18C15.0017 18.3671 15.1363 18.7215 15.3801 18.9961C15.6239 19.2706 15.96 19.4461 16.3245 19.4895L16.5 19.5V24L16.5105 24.1755C16.55 24.5103 16.7011 24.8221 16.9395 25.0605C17.1779 25.2989 17.4897 25.45 17.8245 25.4895L18 25.5H19.5L19.6755 25.4895C20.0103 25.45 20.3221 25.2989 20.5605 25.0605C20.7989 24.8221 20.95 24.5103 20.9895 24.1755L21 24L20.9895 23.8245C20.9537 23.5185 20.8244 23.2309 20.6194 23.0009C20.4143 22.7709 20.1435 22.6096 19.8435 22.539L19.6755 22.509L19.5 22.5V18L19.4895 17.8245C19.45 17.4897 19.2989 17.1779 19.0605 16.9395C18.8221 16.7011 18.5104 16.55 18.1755 16.5105L18 16.5ZM18.015 12L17.8245 12.0105C17.46 12.0539 17.1239 12.2294 16.8801 12.5039C16.6363 12.7785 16.5017 13.1329 16.5017 13.5C16.5017 13.8671 16.6363 14.2215 16.8801 14.4961C17.1239 14.7706 17.46 14.9461 17.8245 14.9895L18 15L18.1905 14.9895C18.5551 14.9461 18.8911 14.7706 19.1349 14.4961C19.3787 14.2215 19.5134 13.8671 19.5134 13.5C19.5134 13.1329 19.3787 12.7785 19.1349 12.5039C18.8911 12.2294 18.5551 12.0539 18.1905 12.0105L18.015 12Z" fill="#FFD9DF"/>
</g>
<defs>
<clipPath id="clip0_9_333">
<rect width="36" height="36" fill="white"/>
</clipPath>
</defs>
</svg>
