<svg width="36" height="36" viewBox="0 0 36 36" fill="none" xmlns="http://www.w3.org/2000/svg">
<g clip-path="url(#clip0_14_473)">
<path d="M13.5 28.5C7.05 30.6 7.05 24.75 4.5 24M22.5 31.5V26.25C22.5 24.75 22.65 24.15 21.75 23.25C25.95 22.8 30 21.15 30 14.25C29.9982 12.4574 29.2988 10.7359 28.05 9.44999C28.6357 7.89294 28.5818 6.16743 27.9 4.64999C27.9 4.64999 26.25 4.19999 22.65 6.59999C19.6009 5.80587 16.3991 5.80587 13.35 6.59999C9.75 4.19999 8.1 4.64999 8.1 4.64999C7.41822 6.16743 7.3643 7.89294 7.95 9.44999C6.70118 10.7359 6.00183 12.4574 6 14.25C6 21.15 10.05 22.8 14.25 23.25C13.35 24.15 13.35 25.05 13.5 26.25V31.5" stroke="#FFD9DF" stroke-width="2.25" stroke-linecap="round" stroke-linejoin="round"/>
</g>
<defs>
<clipPath id="clip0_14_473">
<rect width="36" height="36" fill="white"/>
</clipPath>
</defs>
</svg>
