<svg width="50" height="55" fill="none" xmlns="http://www.w3.org/2000/svg"><g clip-path="url(#a)"><mask id="b" style="mask-type:luminance" maskUnits="userSpaceOnUse" x="0" y="0" width="50" height="55"><path d="M0 0h50v55H0V0Z" fill="#fff"/></mask><g mask="url(#b)"><path d="M34.661 41.937S46.351 52.37 44.888 54.19L34.66 50.664v-8.727Z" fill="#9A4057"/><path d="M26.712 4.979h-.867v12.135h.867V4.98Zm-14.55 16.004h-.044v.084h.044v-.084Z" fill="#7C2940"/><path d="M34.765 41.653h-.399v8.95h.399v-8.95Z" fill="#9A4057"/><path d="M34.668 50.596h-.062v.069h.06l.002-.069Z" fill="#7C2940"/><path d="M41.123 16.45H8.379v12.984h32.745l-.001-12.983Z" fill="#000"/><path d="M35.324 25.353h-7.255v3.262h7.255v-3.262Z" fill="#E4BDC3"/><path d="M44.38 22.106h-3.257v1.46h3.257v-1.46Z" fill="#7C2940"/><path d="M32.337 50.03S21.8 48.28 13.162 48.677c0 0 3.512-8.378 8.11-11.24l.028-.451s7.023 3.844 11.037 13.042Z" fill="#000"/><path d="M13.383 48.734h-1.807l-.763-.52V29.732s10.863 7.232 10.634 7.919c0 0-6.054 5.175-8.064 11.083Zm31.621-28.889s1 .93 1.018 1.235c0 0 .239-.786-.993-2.109l-.025.874Z" fill="#9A4057"/><path d="M44.166 24.224s1.249-.26 3.584.291c0 0-2.38-.94-3.255-.794 0 0-.296.379-.33.503Zm-.01.328 2.462 1.14s-2.502-.542-2.48-.57l.017-.57Zm-.028.938-.011.378 2.61 1.327-2.599-1.706Z" fill="#E4BDC3"/><path d="M44.099 26.465s-1.762 1.557-3.157 2.057c0 0-.816.607-7.057-1.079l.565-.468-3.646.59s2.175-1.067 4.37-1.587c0 0-2.166-.349-6.97.753 0 0 3.674-1.78 8.346-1.47 0 0-.29-.714-7.497-.59 0 0-.234.032-.212-.06 0 0 1.011-.706 7.008-.564 0 0 .04-.075-1.721-1.371l-.013-2.092s.412-1.178.953-1.46l1.694-1.672s-.42-4.724-.52-4.921c0 0-3.105-6.088-9.34-9.553 0 0-.376-.617 6.53.406l1.893 1.21s3.71-3.685 7.517-2.605c0 0-2.88 1.395-4.4 4.093 0 0-2.801-1.75-3.038-1.34 0 0 6.018 3.48 9.056 8.95 0 0 .849 1.153.593 5.805 0 0-1.421-2.68-2.17-2.902 0 0 .138.093.472-.224 0 0-1.538-1.228-1.597-1.6 0 0-.691 1.06-.947.912l-.296-.67-.059 2.454 3.926 4.25s.236.453-.394 0h-3.315l-.375.325-.178 1.679 1.944 1.767h.582l1.52-1.265-.067 2.242Z" fill="#E4BDC3"/><path d="M44.377 21.92s.294.845-1.418 1.038c0 0-2.268-.399-2.66-.915" stroke="#E4BDC3" stroke-miterlimit="10"/><path d="M40.299 22.043s.077-.163.375-.324c0 0 3.135-.12 3.315 0l.388.2s.335.778-1.418 1.04c0 0-2.477-.469-2.66-.916Z" fill="#9A4057"/><path d="m27.01 16.824 2.943-.108s.977.614 1.02 1.167c0 0-7.943 1.133-6.389 9.932 0 0-6.148-7.72 2.426-10.991Z" fill="#E4BDC3"/><path d="m24.542 27.613.916 1.016s-1.038-5.313 7.3-5.983c0 0-.524-2.16 1.028-3.772l-2.368.041-1.31-.942s-6.927 1.297-5.566 9.64Z" fill="#9A4057"/><path d="m32.29 50.154 2.316.51v-8.918s-4.755-4.228-10.444-7.433c0 0-5.936-3.391-7.241-3.647 0 0-4.803-5.087-4.162-10.313 0 0-.666.51-.616.743 0 0-.173-4.065 4.064-8.78l-1.355-1.37s-5.985 1.905-5.37 11.358c0 0-6.428 5.668-7.487 9.268l.173.395s.467 12.194 8.719 16.375l-.074-18.512s10.123 6.758 10.493 7.805l.099-.326s6.65 3.484 10.886 12.845Z" fill="#7C2940"/><path d="m1.993 31.572-.397.408S.515 18.378 12.854 12.161c0 0-4.193 3.37-3.216 10.255 0 0-5.782 4.544-7.645 9.156Z" fill="#9A4057"/><path d="M35.541 42.753s-8.425-7.706-19.144-12.302c0 0-4.683-4.654-4.225-10.355 0 0-.61.707-.61.939 0 0 .202-5.15 4.182-8.915l-1.396-1.388s-3.804-5.457.963-10.048c0 0 5.184-.09 9.469 6.31 0 0-4.227.351-7.765 5.126 0 0-4.933 5.533-.564 12.759 0 0-.064-.793.503-1.913 0 0 .895 3.623 2.686 4.946 0 0 .263-4.112 2.928-5.415 0 0-.021 3.258 2.818 5.944 0 0-.131-1.71.284-2.056 0 0 1.813-.835 6.161-.774 0 0-2.862.713-3.627 1.119 0 0 5.178-1.16 6.97-.753 0 0-3.67 1.12-4.37 1.588 0 0 1.807-.427 3.646-.59l-.565.468s6.117 1.343 7.057 1.079l1.115-.57s.196 1.047-1.377 1.775c0 0-5.265.626-6.489 4.33l1.35 8.696Z" fill="#000"/><path d="M19.676 27.964s.24-4.16 3.33-5.47c0 0-.763-3.85 4.322-5.615 0 0-8.108-.565-10.708 6.088 0 0 1.287 4.525 3.056 4.997Z" fill="#7C2940"/><path d="M16.45 24.879s.743-7.715 9.918-7.886l.227-11.674S22.131-.886 15.311.684c0 0 5.3.141 9.469 6.31 0 0-4.446.056-8.038 5.47 0 0-4.58 5.451-.29 12.415h-.001Z" fill="#9A4057"/><path d="m26.369 16.993 2.528-.1s2.03-1.528 2.954-1.91c0 0 3.177 2.742 3.216 4.14l1.694-1.67s-.27-3.887-.52-4.921c0 0-2.888-6.012-9.34-9.553 0 0 .626 1.071-1.902.617l1.596 1.723-.226 11.674Z" fill="#7C2940"/><path d="M33.524 19.072s.76-.975.798-1.673c0 0-1.793-2.204-2.422-2.468 0 0-1.686.739-3.059 1.953 0 0 .81.305.966 1.216l1.336.972h2.38Z" fill="#000"/><path d="M36.55 25.262s0-.77-7.497-.59c0 0-.98-.541 6.796-.625 0 0 .331-.036-1.72-1.371l-.014-2.091s.667-1.407.953-1.46c0 0 .087-.626-.821-1.657 0 0-.72 1.456-.827 1.563 0 0-1.4 1.067-1.091 3.63 0 0-5.634.26-6.75 3.804 0 0 9.569-1.444 10.971-1.203Z" fill="#7C2940"/><path d="M35.405 4.743s4.783 3.276 7.133 6.142c0 0 3.977-3.896.306-8.896 0 0-2.97 1.428-4.4 4.094 0 0-2.667-1.795-3.039-1.34Z" fill="#9A4057"/><path d="m44.166 24.224.423-.647s.129-1.082-.212-1.656c0 0 .201.757-1.418 1.037 0 0-2.308-.465-2.66-.915l-.178 1.68 1.943 1.767h.583l1.519-1.265Z" fill="#000"/><path d="M44.613 22.926s.46.547.44-3.428c0 0-1.487-2.902-2.17-2.903 0 0 .428.665-.918 1.934 0 0-.193.095-.593-.07l3.03 3.304s.003.156-.025.156c0 0 .196.608.202.649.005.04.034.358.034.358Z" fill="#9A4057"/><path d="m41.405 18.512-.948-1.049.015-.665s1.31-.419 2.498-.258c0 0 .563.468-.951 2.044 0 0-.268.156-.615-.073Z" fill="#000"/><path d="m40.47 16.84.046-1.826.32.645s.075.292.919-.932c0 0 .575.861 1.65 1.652 0 0-.204.244-.522.216 0 0-1.192-.026-2.412.245Z" fill="#7C2940"/></g></g><defs><clipPath id="a"><path fill="#fff" d="M0 0h50v55H0z"/></clipPath></defs></svg>