<svg width="36" height="36" viewBox="0 0 36 36" fill="none" xmlns="http://www.w3.org/2000/svg">
<g clip-path="url(#clip0_19_2)">
<path d="M13.5 4.5C13.8297 4.49997 14.1502 4.60857 14.412 4.809L14.562 4.9395L18.621 9H28.5C29.6478 8.99994 30.7523 9.43849 31.5874 10.2259C32.4225 11.0134 32.9252 12.0902 32.9925 13.236L33 13.5V25.5C33.0001 26.6478 32.5615 27.7523 31.7741 28.5874C30.9866 29.4225 29.9098 29.9252 28.764 29.9925L28.5 30H7.5C6.35218 30.0001 5.24773 29.5615 4.41261 28.7741C3.57749 27.9866 3.07484 26.9098 3.0075 25.764L3 25.5V9C2.99994 7.85218 3.43849 6.74773 4.22593 5.91261C5.01336 5.07749 6.09016 4.57484 7.236 4.5075L7.5 4.5H13.5Z" fill="#FFD9DF"/>
</g>
<defs>
<clipPath id="clip0_19_2">
<rect width="36" height="36" fill="white"/>
</clipPath>
</defs>
</svg>
