<?xml version="1.0" encoding="utf-8"?>
<!-- Generator: Adobe Illustrator 27.1.0, SVG Export Plug-In . SVG Version: 6.00 Build 0)  -->
<svg version="1.1" id="Capa_1" xmlns="http://www.w3.org/2000/svg" xmlns:xlink="http://www.w3.org/1999/xlink" x="0px" y="0px"
	 viewBox="0 0 800 800" style="enable-background:new 0 0 800 800;" xml:space="preserve">
<style type="text/css">
	.st0{fill:#2861D3;}
	.st1{display:none;}
	.st2{display:inline;fill:#89D3FF;}
	.st3{fill:#FFFFFF;}
</style>
<g>
	<path class="st0" d="M628.1,800H171.9C77,800,0,723,0,628.1V171.9C0,77,77,0,171.9,0h456.1C723,0,800,77,800,171.9v456.1
		C800,723,723,800,628.1,800z"/>
	<g class="st1">
		<path class="st2" d="M187.1,600h-44.3V169.2h148.3c40.2,0,70,12.5,89.5,37.5c19.5,25,29.2,57.8,29.2,98.4
			c0,14.4-0.4,26.8-1.2,37.2c-0.8,10.5-3.4,23.6-7.7,39.4c-4.3,15.8-10.2,28.7-17.5,38.8c-7.4,10.1-18.7,18.9-33.8,26.5
			c-15.2,7.6-33.2,11.4-54.2,11.4H187.1V600L187.1,600z M187.1,415.4h102.8c14.8,0,27.3-2.9,37.5-8.6c10.2-5.8,17.7-11.9,22.5-18.5
			c4.7-6.6,8.4-16,11.1-28.3c2.7-12.3,4.1-21.5,4.3-27.7c0.2-6.1,0.3-15,0.3-26.5c0-62.4-26.1-93.5-78.2-93.5H187.1L187.1,415.4
			L187.1,415.4z"/>
		<path class="st2" d="M453.5,521.8l43.1-1.8c1.6,15.2,9.2,27,22.8,35.4c13.5,8.4,29.1,12.6,46.8,12.6c17.6,0,32.9-4,45.8-12
			c12.9-8,19.4-19.5,19.4-34.4c0-15-5.5-26.9-16.6-35.7c-11.1-8.8-24.6-15.8-40.6-20.9c-16-5.1-32.1-10.6-48.3-16.3
			c-16.2-5.7-30.5-14.8-42.8-27.1c-15.2-14.4-22.8-31.9-22.8-52.6c0-20.7,8.3-40,24.9-57.9c16.6-17.8,43.6-26.8,80.9-26.8
			c13.1,0,25.4,1.5,36.9,4.6c11.5,3.1,19.7,6.1,24.6,8.9l7.4,4.3l-14.2,38.8c-13.1-10.2-30.4-15.4-51.7-15.4c-21.3,0-37.2,4-47.7,12
			c-10.5,8-15.7,18.2-15.7,30.4c0,13.5,6.6,24.2,19.7,32c13.1,7.8,27.9,14.4,44.3,19.7c16.4,5.3,32.7,11.3,48.9,17.8
			c16.2,6.6,29.9,16.8,41.2,30.8c11.3,13.9,16.9,32.4,16.9,55.4s-9.2,43-27.7,60c-18.5,17-45.4,25.5-80.9,25.5
			c-35.5,0-63.3-8.4-83.4-25.2C464.8,567.2,454.4,546.5,453.5,521.8z"/>
	</g>
	<g>
		<path class="st3" d="M187.1,600h-44.3V169.2h148.3c40.2,0,70,12.5,89.5,37.5c19.5,25,29.2,57.8,29.2,98.4
			c0,14.4-0.4,26.8-1.2,37.2c-0.8,10.5-3.4,23.6-7.7,39.4c-4.3,15.8-10.2,28.7-17.5,38.8c-7.4,10.1-18.7,18.9-33.8,26.5
			c-15.2,7.6-33.2,11.4-54.2,11.4H187.1L187.1,600L187.1,600z M187.1,415.4h102.8c14.8,0,27.3-2.9,37.5-8.6
			c10.2-5.8,17.7-11.9,22.5-18.5c4.7-6.6,8.4-16,11.1-28.3c2.7-12.3,4.1-21.5,4.3-27.7c0.2-6.1,0.3-15,0.3-26.5
			c0-62.4-26.1-93.5-78.2-93.5H187.1L187.1,415.4L187.1,415.4z"/>
		<path class="st3" d="M453.5,521.8l43.1-1.8c1.6,15.2,9.2,27,22.8,35.4c13.5,8.4,29.1,12.6,46.8,12.6c17.6,0,32.9-4,45.8-12
			c12.9-8,19.4-19.5,19.4-34.4c0-15-5.5-26.9-16.6-35.7c-11.1-8.8-24.6-15.8-40.6-20.9c-16-5.1-32.1-10.6-48.3-16.3
			c-16.2-5.7-30.5-14.8-42.8-27.1c-15.2-14.4-22.8-31.9-22.8-52.6c0-20.7,8.3-40,24.9-57.9c16.6-17.8,43.6-26.8,80.9-26.8
			c13.1,0,25.4,1.5,36.9,4.6c11.5,3.1,19.7,6.1,24.6,8.9l7.4,4.3l-14.2,38.8c-13.1-10.2-30.4-15.4-51.7-15.4c-21.3,0-37.2,4-47.7,12
			c-10.5,8-15.7,18.2-15.7,30.4c0,13.5,6.6,24.2,19.7,32c13.1,7.8,27.9,14.4,44.3,19.7c16.4,5.3,32.7,11.3,48.9,17.8
			c16.2,6.6,29.9,16.8,41.2,30.8c11.3,13.9,16.9,32.4,16.9,55.4s-9.2,43-27.7,60c-18.5,17-45.4,25.5-80.9,25.5
			c-35.5,0-63.3-8.4-83.4-25.2C464.8,567.2,454.4,546.5,453.5,521.8z"/>
	</g>
</g>
</svg>
