<?xml version="1.0" encoding="UTF-8"?>
<svg xmlns="http://www.w3.org/2000/svg" xmlns:xlink="http://www.w3.org/1999/xlink" width="124px" height="150px" viewBox="0 0 633 766" version="1.1">
<g id="surface2">
<path style=" stroke:none;fill-rule:nonzero;fill:rgb(93.72549%,21.960784%,11.764706%);fill-opacity:1;" d="M 454.285156 591.308594 C 454.285156 591.308594 611.386719 739.914062 591.722656 765.824219 L 454.285156 715.609375 L 454.285156 591.308594 "/>
<path style=" stroke:none;fill-rule:nonzero;fill:rgb(98.431373%,41.568627%,27.45098%);fill-opacity:1;" d="M 335.808594 64.960938 L 347.445312 64.960938 L 347.445312 237.792969 L 335.808594 237.792969 Z M 335.808594 64.960938 "/>
<path style=" stroke:none;fill-rule:nonzero;fill:rgb(33.72549%,5.882353%,2.352941%);fill-opacity:1;" d="M 151.324219 292.871094 L 151.976562 292.871094 L 151.976562 294.078125 L 151.324219 294.078125 Z M 151.324219 292.871094 "/>
<path style=" stroke:none;fill-rule:nonzero;fill:rgb(93.72549%,21.960784%,11.764706%);fill-opacity:1;" d="M 450.324219 587.277344 L 455.679688 587.277344 L 455.679688 714.746094 L 450.324219 714.746094 Z M 450.324219 587.277344 "/>
<path style=" stroke:none;fill-rule:nonzero;fill:rgb(93.72549%,21.960784%,11.764706%);fill-opacity:1;" d="M 453.542969 714.648438 L 454.390625 714.648438 L 454.390625 715.625 L 453.542969 715.625 Z M 453.542969 714.648438 "/>
<path style=" stroke:none;fill-rule:nonzero;fill:rgb(0%,0%,0%);fill-opacity:1;" d="M 101.0625 228.335938 L 541.121094 228.335938 L 541.121094 413.246094 L 101.0625 413.246094 Z M 101.0625 228.335938 "/>
<path style=" stroke:none;fill-rule:nonzero;fill:rgb(100%,100%,100%);fill-opacity:1;" d="M 365.691406 355.125 L 463.1875 355.125 L 463.1875 401.589844 L 365.691406 401.589844 Z M 365.691406 355.125 "/>
<path style=" stroke:none;fill-rule:nonzero;fill:rgb(27.45098%,3.921569%,2.352941%);fill-opacity:1;" d="M 541.121094 308.882812 L 584.882812 308.882812 L 584.882812 329.671875 L 541.121094 329.671875 Z M 541.121094 308.882812 "/>
<path style=" stroke:none;fill-rule:nonzero;fill:rgb(0%,0%,0%);fill-opacity:1;" d="M 423.042969 706.570312 C 423.042969 706.570312 281.457031 681.652344 165.351562 687.316406 C 165.351562 687.316406 212.542969 568.007812 274.347656 527.230469 L 274.722656 520.816406 C 274.714844 520.808594 369.105469 575.558594 423.042969 706.570312 Z M 423.042969 706.570312 "/>
<path style=" stroke:none;fill-rule:nonzero;fill:rgb(93.72549%,21.960784%,11.764706%);fill-opacity:1;" d="M 168.320312 688.117188 L 144.042969 688.117188 L 133.785156 680.714844 L 133.785156 417.5 C 133.785156 417.5 279.769531 520.492188 276.6875 530.257812 C 276.695312 530.257812 195.324219 603.96875 168.320312 688.117188 Z M 168.320312 688.117188 "/>
<path style=" stroke:none;fill-rule:nonzero;fill:rgb(93.72549%,21.960784%,11.764706%);fill-opacity:1;" d="M 593.273438 276.675781 C 593.273438 276.675781 606.722656 289.921875 606.960938 294.257812 C 606.960938 294.257812 610.164062 283.070312 593.621094 264.234375 Z M 593.273438 276.675781 "/>
<path style=" stroke:none;fill-rule:nonzero;fill:rgb(100%,100%,100%);fill-opacity:1;" d="M 582.019531 339.046875 C 582.019531 339.046875 598.800781 335.332031 630.1875 343.191406 C 630.1875 343.191406 598.195312 329.792969 586.441406 331.875 C 586.441406 331.875 582.46875 337.285156 582.019531 339.046875 Z M 582.019531 339.046875 "/>
<path style=" stroke:none;fill-rule:nonzero;fill:rgb(100%,100%,100%);fill-opacity:1;" d="M 581.882812 343.714844 L 614.984375 359.957031 C 614.984375 359.957031 581.359375 352.230469 581.65625 351.839844 Z M 581.882812 343.714844 "/>
<path style=" stroke:none;fill-rule:nonzero;fill:rgb(100%,100%,100%);fill-opacity:1;" d="M 581.507812 357.070312 L 581.359375 362.476562 L 616.441406 381.355469 Z M 581.507812 357.070312 "/>
<path style=" stroke:none;fill-rule:nonzero;fill:rgb(100%,100%,100%);fill-opacity:1;" d="M 581.117188 370.976562 C 581.117188 370.976562 557.441406 393.144531 538.691406 400.265625 C 538.691406 400.265625 527.730469 408.90625 443.855469 384.898438 L 451.441406 378.230469 L 402.449219 386.636719 C 402.449219 386.636719 431.675781 371.433594 461.171875 364.027344 C 461.171875 364.027344 432.070312 359.074219 367.507812 374.753906 C 367.507812 374.753906 416.886719 349.40625 479.664062 353.820312 C 479.664062 353.820312 475.765625 343.648438 378.914062 345.425781 C 378.914062 345.425781 375.773438 345.882812 376.066406 344.554688 C 376.066406 344.554688 389.65625 334.503906 470.246094 336.523438 C 470.246094 336.523438 470.792969 335.457031 447.117188 317 L 446.945312 287.214844 C 446.945312 287.214844 452.484375 270.441406 459.738281 266.410156 L 482.515625 242.613281 C 482.515625 242.613281 476.882812 175.339844 475.523438 172.523438 C 475.523438 172.523438 433.804688 85.816406 349.996094 36.472656 C 349.996094 36.472656 344.949219 27.675781 437.757812 42.25 L 463.210938 59.472656 C 463.210938 59.472656 513.058594 7.003906 564.238281 22.375 C 564.238281 22.375 525.523438 42.25 505.101562 80.675781 C 505.101562 80.675781 467.449219 55.765625 464.265625 61.59375 C 464.265625 61.59375 545.144531 111.148438 585.976562 189.058594 C 585.976562 189.058594 597.378906 205.484375 593.933594 271.738281 C 593.933594 271.738281 574.839844 233.574219 564.769531 230.398438 C 564.769531 230.398438 566.628906 231.722656 571.136719 227.21875 C 571.136719 227.21875 550.453125 209.726562 549.65625 204.429688 C 549.65625 204.429688 540.371094 219.53125 536.929688 217.417969 L 532.957031 207.875 L 532.160156 242.824219 L 584.929688 303.359375 C 584.929688 303.359375 588.109375 309.804688 579.625 303.359375 L 535.078125 303.359375 L 530.039062 307.980469 L 527.652344 331.890625 L 553.765625 357.066406 L 561.597656 357.066406 L 582.019531 339.046875 Z M 581.117188 370.976562 "/>
<path style="fill:none;stroke-width:1;stroke-linecap:butt;stroke-linejoin:miter;stroke:rgb(100%,100%,100%);stroke-opacity:1;stroke-miterlimit:10;" d="M 779.858697 408.367531 C 779.858697 408.367531 785.119426 424.431044 754.450942 428.100321 C 723.782459 431.769598 754.450942 428.100321 754.450942 428.100321 C 754.450942 428.100321 713.80791 420.532436 706.771035 410.718162 " transform="matrix(0.749956,0,0,0.749466,0,0.168834)"/>
<path style=" stroke:none;fill-rule:nonzero;fill:rgb(27.45098%,3.921569%,2.352941%);fill-opacity:1;" d="M 530.039062 307.988281 C 530.039062 307.988281 531.074219 305.671875 535.078125 303.367188 C 535.078125 303.367188 577.210938 301.671875 579.625 303.367188 L 584.851562 306.226562 C 584.851562 306.226562 589.351562 317.296875 565.796875 321.015625 C 542.242188 324.734375 565.796875 321.015625 565.796875 321.015625 C 565.796875 321.015625 532.519531 314.367188 530.039062 307.988281 "/>
<path style=" stroke:none;fill-rule:nonzero;fill:rgb(93.72549%,21.960784%,11.764706%);fill-opacity:1;" d="M 464.28125 61.59375 L 463.226562 59.472656 C 463.226562 59.472656 507.613281 5.886719 564.25 22.375 C 620.886719 38.863281 564.25 22.375 564.25 22.375 C 564.25 22.375 513.34375 55.246094 505.710938 82.617188 C 505.710938 82.617188 474.039062 57.40625 464.28125 61.59375 "/>
<path style=" stroke:none;fill-rule:nonzero;fill:rgb(100%,100%,100%);fill-opacity:1;" d="M 351.460938 233.65625 L 391.003906 232.105469 C 391.003906 232.105469 404.144531 240.867188 404.730469 248.738281 C 404.730469 248.738281 297.964844 264.871094 318.859375 390.183594 C 318.851562 390.183594 236.234375 280.265625 351.460938 233.65625 Z M 351.460938 233.65625 "/>
<path style=" stroke:none;fill-rule:nonzero;fill:rgb(93.72549%,21.960784%,11.764706%);fill-opacity:1;" d="M 318.28125 387.3125 L 330.59375 401.777344 C 330.59375 401.777344 316.644531 326.105469 428.691406 316.570312 C 428.691406 316.570312 421.65625 285.789062 442.527344 262.84375 C 463.398438 239.894531 442.527344 262.84375 442.527344 262.84375 L 410.699219 263.433594 L 393.089844 250.011719 C 393.089844 250.011719 299.996094 268.476562 318.28125 387.3125 "/>
<path style=" stroke:none;fill-rule:nonzero;fill:rgb(63.137255%,1.960784%,0.392157%);fill-opacity:1;" d="M 422.425781 708.339844 L 453.542969 715.617188 L 453.542969 588.589844 C 453.542969 588.589844 389.65625 528.386719 313.1875 482.734375 C 313.1875 482.734375 233.417969 434.441406 215.867188 430.796875 C 215.867188 430.796875 151.320312 358.355469 159.929688 283.917969 C 159.929688 283.917969 150.988281 291.195312 151.65625 294.5 C 151.65625 294.5 149.339844 236.609375 206.273438 169.457031 L 188.066406 149.941406 C 188.066406 149.941406 107.625 177.066406 115.90625 311.707031 C 115.90625 311.707031 29.511719 392.425781 15.277344 443.695312 L 17.59375 449.316406 C 17.59375 449.316406 23.886719 622.992188 134.773438 682.535156 L 133.785156 418.886719 C 133.785156 418.886719 269.835938 515.148438 274.796875 530.042969 L 276.125 525.410156 C 276.117188 525.410156 365.492188 575.023438 422.425781 708.339844 Z M 422.425781 708.339844 "/>
<path style=" stroke:none;fill-rule:nonzero;fill:rgb(93.72549%,21.960784%,11.764706%);fill-opacity:1;" d="M 15.261719 443.695312 L 9.914062 449.511719 C 9.914062 449.511719 -4.613281 255.796875 161.210938 167.246094 C 161.210938 167.246094 104.875 215.242188 117.992188 313.289062 C 117.992188 313.289062 40.296875 378.011719 15.261719 443.695312 Z M 15.261719 443.695312 "/>
<path style=" stroke:none;fill-rule:nonzero;fill:rgb(0%,0%,0%);fill-opacity:1;" d="M 466.113281 602.933594 C 466.113281 602.933594 352.875 493.175781 208.824219 427.722656 C 208.824219 427.722656 145.890625 361.449219 152.046875 280.25 C 152.046875 280.25 143.847656 290.316406 143.855469 293.613281 C 143.855469 293.613281 146.5625 220.28125 200.050781 166.65625 L 181.285156 146.890625 C 181.285156 146.890625 130.167969 69.164062 194.230469 3.789062 C 194.230469 3.789062 263.894531 2.515625 321.484375 93.648438 C 321.484375 93.648438 264.683594 98.648438 217.132812 166.65625 C 217.132812 166.65625 150.839844 245.460938 209.558594 348.371094 C 209.558594 348.371094 208.683594 337.070312 216.308594 321.121094 C 216.308594 321.121094 228.347656 372.722656 252.421875 391.5625 C 252.421875 391.5625 255.945312 333.007812 291.761719 314.449219 C 291.761719 314.449219 291.46875 360.835938 329.636719 399.09375 C 329.636719 399.09375 327.875 374.746094 333.453125 369.8125 C 333.453125 369.8125 357.820312 357.925781 416.246094 358.796875 C 416.246094 358.796875 377.78125 368.945312 367.507812 374.738281 C 367.507812 374.738281 437.097656 358.210938 461.171875 364.011719 C 461.171875 364.011719 411.84375 379.953125 402.449219 386.625 C 402.449219 386.625 426.730469 380.539062 451.441406 378.214844 L 443.855469 384.886719 C 443.855469 384.886719 526.0625 404.019531 538.691406 400.25 L 553.667969 392.132812 C 553.667969 392.132812 556.308594 407.046875 535.175781 417.417969 C 535.175781 417.417969 464.417969 426.339844 447.972656 479.101562 Z M 466.113281 602.933594 "/>
<path style=" stroke:none;fill-rule:nonzero;fill:rgb(63.137255%,1.960784%,0.392157%);fill-opacity:1;" d="M 252.898438 392.3125 C 252.898438 392.3125 256.132812 333.058594 297.648438 314.398438 C 297.648438 314.398438 287.382812 259.566406 355.742188 234.4375 C 355.742188 234.4375 246.757812 226.386719 211.832031 321.136719 C 211.824219 321.136719 229.125 385.597656 252.898438 392.3125 Z M 252.898438 392.3125 "/>
<path style=" stroke:none;fill-rule:nonzero;fill:rgb(93.72549%,21.960784%,11.764706%);fill-opacity:1;" d="M 209.550781 348.371094 C 209.550781 348.371094 219.527344 238.492188 342.835938 236.0625 L 345.886719 69.792969 C 345.886719 69.792969 285.890625 -18.566406 194.222656 3.789062 C 194.222656 3.789062 265.4375 5.796875 321.476562 93.648438 C 321.476562 93.648438 261.71875 94.460938 213.460938 171.550781 C 213.46875 171.558594 151.894531 249.195312 209.550781 348.371094 Z M 209.550781 348.371094 "/>
<path style=" stroke:none;fill-rule:nonzero;fill:rgb(98.431373%,41.568627%,27.45098%);fill-opacity:1;" d="M 342.84375 236.0625 L 376.824219 234.625 C 376.824219 234.625 404.097656 212.867188 416.519531 207.433594 C 416.519531 207.433594 459.21875 246.488281 459.738281 266.402344 L 482.515625 242.605469 C 482.515625 242.605469 478.890625 187.257812 475.523438 172.515625 C 475.523438 172.515625 436.699219 86.90625 349.996094 36.464844 C 349.996094 36.464844 358.410156 51.730469 324.4375 45.265625 L 345.886719 69.792969 Z M 342.84375 236.0625 "/>
<path style=" stroke:none;fill-rule:nonzero;fill:rgb(0%,0%,0%);fill-opacity:1;" d="M 439 265.660156 C 439 265.660156 449.207031 251.78125 449.734375 241.839844 C 449.734375 241.839844 425.628906 210.453125 417.179688 206.691406 C 417.179688 206.691406 394.515625 217.207031 376.074219 234.503906 C 376.074219 234.503906 386.953125 238.851562 389.0625 251.832031 L 407.007812 265.667969 L 439 265.667969 Z M 439 265.660156 "/>
<path style=" stroke:none;fill-rule:nonzero;fill:rgb(63.137255%,1.960784%,0.392157%);fill-opacity:1;" d="M 479.671875 353.820312 C 479.671875 353.820312 479.671875 342.863281 378.921875 345.425781 C 378.921875 345.425781 365.730469 337.722656 470.253906 336.523438 C 470.253906 336.523438 474.707031 336.003906 447.125 317 L 446.945312 287.214844 C 446.945312 287.214844 455.914062 267.1875 459.738281 266.410156 C 459.738281 266.410156 460.921875 257.511719 448.707031 242.824219 C 448.707031 242.824219 439.039062 263.5625 437.589844 265.082031 C 437.589844 265.082031 418.789062 280.28125 422.929688 316.796875 C 422.929688 316.796875 347.214844 320.484375 332.222656 370.976562 C 332.222656 370.976562 460.824219 350.402344 479.671875 353.820312 Z M 479.671875 353.820312 "/>
<path style=" stroke:none;fill-rule:nonzero;fill:rgb(0%,0%,0%);fill-opacity:1;" d="M 464.28125 61.59375 C 464.28125 61.59375 528.554688 108.25 560.140625 149.066406 C 560.140625 149.066406 613.589844 93.582031 564.25 22.375 C 564.25 22.375 524.347656 42.707031 505.117188 80.675781 C 505.117188 80.675781 469.277344 55.121094 464.28125 61.59375 Z M 464.28125 61.59375 "/>
<path style=" stroke:none;fill-rule:nonzero;fill:rgb(0%,0%,0%);fill-opacity:1;" d="M 582.019531 339.046875 L 587.703125 329.820312 C 587.703125 329.820312 589.433594 314.421875 584.859375 306.226562 C 584.859375 306.226562 587.566406 317.019531 565.804688 321.015625 C 565.804688 321.015625 534.777344 314.382812 530.046875 307.988281 L 527.660156 331.898438 L 553.773438 357.070312 L 561.605469 357.070312 Z M 582.019531 339.046875 "/>
<path style=" stroke:none;fill-rule:nonzero;fill:rgb(93.72549%,21.960784%,11.764706%);fill-opacity:1;" d="M 588.023438 320.574219 C 588.023438 320.574219 594.199219 328.351562 593.949219 271.746094 C 593.949219 271.746094 573.957031 230.414062 564.785156 230.40625 C 564.785156 230.40625 570.527344 239.871094 552.449219 257.941406 C 552.449219 257.941406 549.84375 259.289062 544.476562 256.949219 L 585.207031 304.003906 C 585.207031 304.003906 585.242188 306.226562 584.859375 306.226562 C 584.859375 306.226562 587.492188 314.878906 587.566406 315.460938 C 587.644531 316.046875 588.023438 320.574219 588.023438 320.574219 Z M 588.023438 320.574219 "/>
<path style=" stroke:none;fill-rule:nonzero;fill:rgb(0%,0%,0%);fill-opacity:1;" d="M 544.910156 257.683594 L 532.167969 242.75 L 532.378906 233.28125 C 532.378906 233.28125 549.972656 227.308594 565.9375 229.601562 C 565.9375 229.601562 573.511719 236.273438 553.167969 258.726562 C 553.160156 258.734375 549.566406 260.953125 544.910156 257.683594 Z M 544.910156 257.683594 "/>
<path style=" stroke:none;fill-rule:nonzero;fill:rgb(63.137255%,1.960784%,0.392157%);fill-opacity:1;" d="M 532.363281 233.882812 L 532.957031 207.875 L 537.269531 217.058594 C 537.269531 217.058594 538.273438 221.222656 549.621094 203.785156 C 549.621094 203.785156 557.34375 216.050781 571.78125 227.316406 C 571.78125 227.316406 569.050781 230.800781 564.777344 230.398438 C 564.777344 230.398438 548.773438 230.023438 532.363281 233.882812 Z M 532.363281 233.882812 "/>
<path style=" stroke:none;fill-rule:nonzero;fill:rgb(63.137255%,1.960784%,0.392157%);fill-opacity:1;" d="M 375.285156 233.507812 L 368.144531 216.121094 C 367.507812 214.570312 369.261719 213.128906 370.65625 214.058594 L 375.21875 217.09375 C 375.21875 217.09375 378.039062 220.21875 384.570312 199.714844 C 384.871094 198.761719 385.925781 198.273438 386.847656 198.664062 C 391.125 200.464844 403.132812 204.996094 419.898438 207.097656 C 421.210938 207.261719 421.851562 208.789062 421.03125 209.824219 C 419.871094 211.300781 417.957031 213.105469 415.070312 214.15625 C 415.070312 214.15625 396.148438 222.199219 377.789062 234.28125 C 376.898438 234.863281 375.691406 234.496094 375.285156 233.507812 Z M 375.285156 233.507812 "/>
<path style=" stroke:none;fill-rule:nonzero;fill:rgb(93.72549%,21.960784%,11.764706%);fill-opacity:1;" d="M 134.765625 682.535156 L 143.550781 688.6875 L 167.652344 688.988281 L 168.320312 688.117188 L 144.042969 688.117188 L 134.765625 681.417969 Z M 134.765625 682.535156 "/>
<path style=" stroke:none;fill-rule:nonzero;fill:rgb(0%,0%,0%);fill-opacity:1;" d="M 421.558594 706.316406 L 422.425781 708.339844 C 266.382812 683.503906 167.652344 688.988281 167.652344 688.988281 L 168.320312 687.175781 C 168.320312 687.175781 284.539062 672.890625 421.558594 706.316406 Z M 421.558594 706.316406 "/>
<path style=" stroke:none;fill-rule:nonzero;fill:rgb(93.72549%,21.960784%,11.764706%);fill-opacity:1;" d="M 167.652344 688.988281 L 168.003906 688.972656 C 168.003906 688.972656 168.417969 687.804688 168.640625 687.136719 L 168.28125 687.136719 L 167.628906 688.988281 "/>
</g>
</svg>
